<?xml version="1.0" encoding="UTF-8"?>
<svg width="116.01mm" height="31.557mm" version="1.1" xmlns="http://www.w3.org/2000/svg">
	<g fill="#353535">
		<path id="leafRight" d="m365.26 77.566c-1.7536 2.4366-2.7612 5.6268-2.3768 9.5027 0.021 0.21165 0.0957 0.48131 0.28795 0.72433 0.19228 0.24301 0.48903 0.40693 0.73319 0.46516 0.48833 0.11646 0.77244-5e-4 1.0322-0.0953 0.51958-0.18949 0.98849-0.48957 1.5594-0.87939 1.1419-0.77965 2.5764-1.9268 4.0359-3.1011 1.3383-1.0768 2.6474-2.1228 3.7457-2.935-0.3609 0.69278-0.65522 1.3208-1.2515 2.2328-1.8159 2.7773-4.9909 6.2218-8.7985 9.586 4.66 1.5253 8.3934 1.4763 13.257-2.2799 3.087-2.8019 4.8412-5.5851 6.0977-9.9729 0.59081-2.063 0.92796-3.9816 0.85885-6.0316 4e-3 -2.5534-1.5638-4.5015-4.2033-4.7234-5.6703-3e-3 -11.92 3.3687-14.978 7.5077z"/>
		<path id="leafLeft" d="m355.36 53.336c-0.14719-0.0129-0.29326-0.0139-0.43554 4e-3 -0.28457 0.0356-0.55273 0.14454-0.7793 0.3711l-4e-3 4e-3c-3.87 3.9316-6.9975 9.9796-7.3809 15.861-0.38334 5.8817 2.1464 11.644 9.4102 14.451l0.0137-0.0703c1.1172 0.15515 0.75195-0.91211 0.75195-0.91211-5.6541-7.9677-2.3655-16.13-0.73046-19.25 0.25485 1.3639 0.81998 4.433 1.6914 8.6191 0.52428 2.5185 1.0626 4.9587 1.5078 6.6426 0.22262 0.84194 0.41135 1.48 0.60157 1.9121 0.0476 0.10803 0.0949 0.20499 0.16015 0.30468 0.0653 0.0997 0.1239 0.22806 0.38477 0.33789 0.13043 0.0549 0.33888 0.0759 0.51172 0.0137 0.17283-0.0622 0.27931-0.17486 0.34179-0.26172 0.12498-0.17374 0.14169-0.28708 0.16602-0.40625 0.75142-3.6808 2.4903-5.6637 4.1074-7.1387 0.80855-0.73747 1.5887-1.3346 2.2129-1.9668 0.62415-0.63225 1.1283-1.3657 1.127-2.2754-7e-3 -4.3106-3.1739-8.6412-6.4824-11.768-1.6542-1.5632-3.3537-2.8197-4.7871-3.6035-0.71668-0.3919-1.3636-0.66869-1.9473-0.79883-0.14592-0.0325-0.29422-0.0574-0.44141-0.0703z"/>
		<path d="m353.16 101.13c-1.1366 0-2.0723 0.93569-2.0723 2.0723 0 1.1366 0.93677 2.0703 2.0723 2.0703h13.287c1.1355 0 2.0723-0.93373 2.0723-2.0703 0-1.1366-0.9357-2.0723-2.0723-2.0723z"/>
		<path d="m353.16 108.13c-1.1366 0-2.0723 0.93569-2.0723 2.0723 0 1.1366 0.93677 2.0703 2.0723 2.0703h13.287c1.1355 0 2.0723-0.93373 2.0723-2.0703 0-1.1366-0.9357-2.0723-2.0723-2.0723z"/>
		<path d="m358.16 115.13c-1.1366 0-2.0723 0.93569-2.0723 2.0723 0 1.1366 0.93677 2.0703 2.0723 2.0703h3.2871c1.1355 0 2.0723-0.93373 2.0723-2.0703 0-1.1366-0.9357-2.0723-2.0723-2.0723z"/>
	</g>
	<g fill="#68a5d0">
		<path d="m0 39.773q0-1.0133 0.63333-1.6467 0.76-0.63333 1.6467-0.63333 1.52 0 2.1533 1.3933l17.86 49.527 14.567-45.853q0.63333-1.6467 2.28-1.6467 1.6467 0 2.28 1.6467l14.06 46.487 18.24-50.16q0.38-1.3933 2.0267-1.3933 2.28 0 2.28 2.1533 0 0.76-0.50667 1.7733l-19.887 55.1q-0.50667 1.52-1.9 1.52-1.14 0-1.7733-1.3933l-14.82-47.5-14.567 46.74q-0.76001 2.1533-2.1533 2.1533-0.88667 0-1.2667-0.38t-0.88667-1.7733l-19.76-54.467q-0.50666-1.0133-0.50666-1.6467z" style="font-feature-settings:normal;font-variant-caps:normal;font-variant-ligatures:normal;font-variant-numeric:normal"/>
		<path d="m86.931 74.987v-15.833q0-9.12 6.5867-15.707 6.7133-6.7133 15.96-6.7133 9.12 0 15.707 6.5867 6.7133 6.46 6.7133 16.213 0 3.2933-0.75999 5.32-0.76 2.0267-2.5333 2.9133-1.7733 0.88666-3.2933 1.14-1.3933 0.12666-3.9267 0.12666h-30.02v5.9533q0 8.4867 5.9533 13.553 5.9533 5.0667 15.453 5.0667 4.6867 0 7.8533-1.2667 3.1667-1.3933 4.6867-2.66 1.6467-1.2667 2.4067-1.2667 0.88667 0 1.52 0.76 0.76 0.76 0.76 1.52 0 1.2667-2.0267 3.04-2.0267 1.6467-6.2067 3.04-4.18 1.2667-9.2467 1.2667-11.273 0-18.493-6.3333-7.0933-6.46-7.0933-16.72zm4.4333-10.387h28.5q4.6867 0 6.08-0.88667 1.52-0.88666 1.52-3.8 0-7.22-5.0667-12.92-5.0667-5.8267-12.92-5.8267-7.6 0-12.92 5.4467-5.1933 5.32-5.1933 12.54z" style="font-feature-settings:normal;font-variant-caps:normal;font-variant-ligatures:normal;font-variant-numeric:normal"/>
		<path d="m145.62 95v-92.847q0-2.1533 2.1533-2.1533 2.28 0 2.28 2.1533v44.207q5.4467-9.6267 16.973-9.6267 9.3733 0 16.087 6.7133 6.7133 6.7133 6.7133 16.087v15.453q0 9.12-6.84 16.087-6.7133 6.9667-15.707 6.9667-5.5733 0-10.387-2.7867-4.6867-2.7866-6.84-6.84v6.5867q0 0.88668-0.76 1.6467-0.63333 0.63333-1.52 0.63333t-1.52-0.63333q-0.63333-0.76-0.63333-1.6467zm4.4333-15.327q0 3.9267 5.32 8.9933 5.32 4.94 12.16 4.94 7.0933 0 12.413-5.7 5.4467-5.7 5.4467-12.92v-15.453q0-7.0933-5.4467-12.667-5.32-5.7-12.54-5.7-6.84 0-12.16 5.0667-5.1933 5.0667-5.1933 13.3z" style="font-feature-settings:normal;font-variant-caps:normal;font-variant-ligatures:normal;font-variant-numeric:normal"/>
	</g>
	<g fill="#353535">
		<path d="m198.66 42.813q-0.25333-0.25334-0.38-0.88667-0.12666-0.63334-0.12666-1.0133 0-1.6467 1.6467-2.66 1.6467-1.14 3.2933-1.14 1.0133 0 1.7733 0.50667 0.88667 0.37999 1.2667 1.3933l16.72 45.6 16.72-45.093q0.38-1.0133 0.88667-1.6467 0.63333-0.76 2.0267-0.76 1.3933 0 3.1667 1.14 1.9 1.0133 1.9 2.5333 0 1.0133-0.50666 2.0267l-20.393 53.453q-0.38 1.0133-1.3933 1.52t-2.4067 0.50667q-1.3933 0-2.4067-0.50667-1.0133-0.50667-1.3933-1.52z"/>
		<path d="m274.52 36.607q6.3334 0 10.64 2.0267 4.4333 2.0267 7.0933 5.4467 2.7867 3.42 3.9267 7.8533 1.2667 4.4333 1.2667 9.12v32.933q0 1.3933-1.14 2.4067-1.14 0.88668-2.9133 0.88668-1.6467 0-2.7867-0.88668-1.0133-1.0133-1.0133-2.4067v-5.5733q-3.2933 3.8-7.98 6.84-4.6867 2.9133-11.147 2.9133-3.6733 0-6.84-1.0133-3.04-1.0133-5.4467-3.04-2.28-2.1533-3.6733-5.1933-1.2667-3.1667-1.2667-7.4733 0-5.1934 2.1533-8.4867 2.1533-3.42 5.9533-5.32 3.9267-2.0267 9.3733-2.7867 5.4467-0.76 12.033-0.76h6.46v-3.04q0-3.04-0.88667-6.08-0.76-3.04-2.5333-5.4467-1.7733-2.5333-4.6867-4.0533-2.7867-1.6467-6.84-1.6467-3.1667 0-5.4467 0.63333-2.1533 0.50667-3.8 1.2667-1.52 0.63333-2.5333 1.2667-1.0133 0.50667-1.7733 0.50667-1.6467 0-2.5333-1.52-0.76-1.52-0.76-2.9133 0-1.2667 1.52-2.4067t3.9267-2.0267q2.5333-0.88667 5.5733-1.3933 3.04-0.63334 6.08-0.63334zm14.693 33.187h-5.32q-4.4333 0-8.4867 0.38-3.9267 0.25333-7.0933 1.3933-3.1667 1.14-5.0667 3.2933-1.7733 2.1533-1.7733 5.8267 0 5.5733 3.1666 8.1067 3.1667 2.4067 7.8533 2.4067 3.04 0 5.9533-1.2667 3.04-1.2667 5.4467-3.1667 2.4067-2.0267 3.8-4.3067 1.52-2.4067 1.52-4.56z"/>
		<path d="m317.91 0.63333q1.7733 0 2.9133 0.88667 1.2667 0.76 1.2667 2.1533v90.313q0 1.2667-1.2667 2.28-1.14 1.0133-2.9133 1.0133-1.7733 0-2.9133-1.0133-1.14-1.0134-1.14-2.28v-90.313q0-1.3933 1.14-2.1533 1.14-0.88667 2.9133-0.88667z"/>
		<path d="m360.6 36.607c-3.2933 0-6.4175 0.63177-9.373 1.8984-2.8711 1.2667-5.404 2.9978-7.5996 5.1934-2.1111 2.1956-3.7997 4.7304-5.0664 7.6016-1.2667 2.8711-1.9004 5.8677-1.9004 8.9922v13.807c0 3.2089 0.63373 6.25 1.9004 9.1211 1.3511 2.8711 3.1248 5.4466 5.3203 7.7266 2.1956 2.1955 4.7285 3.9692 7.5996 5.3203 2.8711 1.2667 5.9102 1.8984 9.1191 1.8984s6.25-0.67428 9.1211-2.0254c2.9555-1.3511 5.531-3.1248 7.7266-5.3203 0.76912-0.74063 1.397-1.5751 2.0508-2.3926-1.4254 0.36748-2.8797 0.64747-4.1816 1.127l-4.4297-3.1895c-1.2178 1.1022-2.5463 2.0751-4.0801 2.8086-1.9422 0.92889-4.0115 1.3926-6.207 1.3926s-4.2648-0.46369-6.207-1.3926c-1.8578-0.92889-3.5039-2.1538-4.9394-3.6738-1.4356-1.52-2.5755-3.2511-3.4199-5.1934-0.76-2.0267-1.1406-4.0959-1.1406-6.207v-13.807c0-2.0267 0.38063-4.0109 1.1406-5.9531 0.84444-1.9422 1.9419-3.6308 3.293-5.0664 1.4356-1.52 3.1242-2.7449 5.0664-3.6738 1.9422-0.92889 4.0115-1.3926 6.207-1.3926s4.2648 0.46368 6.207 1.3926c1.9422 0.92888 3.6309 2.1538 5.0664 3.6738 1.4356 1.4356 2.5755 3.1242 3.4199 5.0664s1.2676 3.9265 1.2676 5.9531v2.6895c0.02227 0.54034 0.14607 1.0547 0.35938 1.5215 0.2155 0.47156 0.51853 0.89641 0.88867 1.252 0.37014 0.35554 0.80679 0.64145 1.291 0.83984s1.0165 0.30847 1.5742 0.30859c0.55793 1.35e-4 1.0878-0.10835 1.5723-0.30664s0.92264-0.48624 1.293-0.8418 0.67304-0.78027 0.88867-1.252 0.34491-0.99046 0.36523-1.5371v-2.6738c0-3.2933-0.67427-6.375-2.0254-9.2461-1.2667-2.8711-3.0403-5.3615-5.3203-7.4727-2.1956-2.1956-4.771-3.8861-7.7266-5.0684-2.8711-1.2667-5.9122-1.8984-9.1211-1.8984z"/>
		<path d="m415.54 36.607q6.3333 0 10.64 2.0267 4.4333 2.0267 7.0933 5.4467 2.7867 3.42 3.9266 7.8533 1.2667 4.4333 1.2667 9.12v32.933q0 1.3933-1.14 2.4067-1.14 0.88668-2.9133 0.88668-1.6467 0-2.7867-0.88668-1.0133-1.0133-1.0133-2.4067v-5.5733q-3.2933 3.8-7.98 6.84-4.6867 2.9133-11.147 2.9133-3.6733 0-6.84-1.0133-3.04-1.0133-5.4467-3.04-2.28-2.1533-3.6733-5.1933-1.2667-3.1667-1.2667-7.4733 0-5.1934 2.1533-8.4867 2.1533-3.42 5.9533-5.32 3.9267-2.0267 9.3733-2.7867t12.033-0.76h6.46v-3.04q0-3.04-0.88667-6.08-0.76-3.04-2.5333-5.4467-1.7733-2.5333-4.6867-4.0533-2.7867-1.6467-6.84-1.6467-3.1667 0-5.4467 0.63333-2.1533 0.50667-3.8 1.2667-1.52 0.63333-2.5333 1.2667-1.0133 0.50667-1.7733 0.50667-1.6467 0-2.5333-1.52-0.76-1.52-0.76-2.9133 0-1.2667 1.52-2.4067t3.9267-2.0267q2.5333-0.88667 5.5733-1.3933 3.04-0.63334 6.08-0.63334zm14.693 33.187h-5.32q-4.4334 0-8.4867 0.38-3.9267 0.25333-7.0933 1.3933-3.1667 1.14-5.0667 3.2933-1.7733 2.1533-1.7733 5.8267 0 5.5733 3.1667 8.1067 3.1667 2.4067 7.8533 2.4067 3.04 0 5.9533-1.2667 3.04-1.2667 5.4467-3.1667 2.4066-2.0267 3.8-4.3067 1.52-2.4067 1.52-4.56z"/>
	</g>
</svg>
